<svg width="237" height="28" viewBox="0 0 237 28" fill="none" xmlns="http://www.w3.org/2000/svg">
<path d="M20.8403 4.03741L21.4953 0.757812H23.7878L21.0516 4.04467L20.8403 4.03741Z" fill="#1C1B19"/>
<path d="M33.3032 25.5366L34.8668 19.5361H35.0182C34.5287 24.1472 36.3071 27.3361 39.9237 27.3361C42.9592 27.3361 44.7975 25.094 44.7975 22.3477C44.7975 19.9497 43.3889 18.7162 41.6422 17.2324L40.2336 16.0316C38.1488 14.2648 36.5853 12.7774 36.5853 10.285C36.5853 6.96917 39.3426 4.63281 42.6846 4.63281C44.7693 4.63281 46.9773 5.54704 48.2028 6.17829L46.9139 11.3553H46.7625C46.9773 7.31381 45.5687 4.85049 42.593 4.85049C40.142 4.85049 38.1171 6.49391 38.1171 9.11324C38.1171 11.2609 39.6173 12.4618 41.5506 14.1342L42.8994 15.3024C44.6777 16.8479 46.4561 18.3353 46.4561 21.1759C46.4561 24.5245 43.8819 27.5537 39.7124 27.5537C37.353 27.5537 34.8985 26.5416 33.3067 25.533L33.3032 25.5366Z" fill="#1C1B19"/>
<path d="M50.3758 26.9512L50.9569 26.8895C51.8443 26.7952 52.8585 26.3526 53.1332 25.1227L57.5773 5.26009H56.2286C52.9501 5.26009 51.1083 6.68222 49.4567 10.535H49.3018L51.0484 5.00977H66.4058L65.5465 10.535H65.3951C65.455 6.64957 64.2929 5.26009 61.2256 5.26009H59.6938L55.2813 25.1227C55.0066 26.3526 55.8025 26.7952 56.63 26.8895L57.1829 26.9512L57.1512 27.1108H50.3477L50.3793 26.9512H50.3758Z" fill="#1C1B19"/>
<path d="M67.4474 5.26427L67.1094 5.20259L67.1411 5.04297H73.7298L73.6981 5.20259L73.1171 5.26427C71.7367 5.42027 70.7894 5.70687 71.307 7.47365L73.9728 16.4418L80.2869 7.63327C81.0828 6.49775 81.6955 5.55087 79.3678 5.26427L78.8466 5.20259L78.8783 5.04297H84.2416L84.2099 5.20259L83.7803 5.26427C82.7062 5.42027 81.5723 6.33812 80.47 7.85457L74.1559 16.6957L72.2543 25.1595C71.9796 26.3894 72.7755 26.832 73.6031 26.9263L74.1559 26.988L74.1242 27.1476H67.3207L67.3524 26.988L67.9334 26.9263C68.8208 26.832 69.835 26.3894 70.1097 25.1595L72.0113 16.7284L69.2822 7.7276C68.8208 6.2438 68.4546 5.45292 67.4439 5.26427H67.4474Z" fill="#1C1B19"/>
<path d="M79.5836 26.9883L80.1646 26.9266C81.052 26.8323 82.0662 26.3897 82.3409 25.1598L86.3871 7.03495C86.6618 5.77245 85.866 5.3625 85.0384 5.26818L84.4855 5.2065L84.5172 5.04688H91.3208L91.2891 5.2065L90.708 5.26818C89.8206 5.3625 88.8064 5.8051 88.5317 7.03495L84.4538 25.2868C84.2073 26.3933 84.9151 26.8976 85.9857 26.8976H87.4577C91.0743 26.8976 92.9759 25.5408 95.1522 20.6467H95.3036L93.3421 27.1515H79.5483L79.58 26.9919L79.5836 26.9883Z" fill="#1C1B19"/>
<path d="M95.0598 26.9883L95.6409 26.9266C96.5283 26.8323 97.5425 26.3897 97.8172 25.1598L101.863 7.03495C102.138 5.77245 101.342 5.3625 100.515 5.26818L99.9618 5.2065L99.9935 5.04688H113.724L112.558 10.1622H112.407C112.622 6.49803 111.548 5.30083 108.484 5.30083H104.406L102.078 15.6911H104.469C106.677 15.6911 107.72 14.8059 108.699 12.7561H108.85L107.41 19.1666H107.255C107.315 17.2075 106.61 15.945 104.406 15.945H102.047L99.9301 25.3557C99.6836 26.3969 100.391 26.9012 101.43 26.9012H103.452C107.037 26.9012 108.878 26.016 111.083 21.0893H111.234L109.456 27.1515H95.0176L95.0493 26.9919L95.0598 26.9883Z" fill="#1C1B19"/>
<path d="M115.228 25.25C115.594 24.6187 116.179 24.1435 116.792 24.1435C117.528 24.1435 117.926 24.869 118.323 25.6273C118.785 26.4798 119.243 27.3324 120.193 27.3324C121.725 27.3324 122.401 24.996 122.891 22.8157L126.448 7.02714C126.722 5.76464 125.926 5.35469 125.099 5.26036L124.546 5.19869L124.578 5.03906H131.381L131.35 5.19869L130.769 5.26036C130.064 5.35469 128.867 5.79729 128.592 7.02714L125.159 22.2461C124.363 25.7833 122.063 27.55 119.887 27.55C117.464 27.55 115.809 26.4145 115.228 25.2463V25.25Z" fill="#1C1B19"/>
<path d="M130.338 18.0197C130.338 10.7567 135.98 4.63281 141.252 4.63281C145.696 4.63281 148.668 8.92822 148.668 14.1995C148.668 21.4299 143.026 27.5574 137.727 27.5574C133.282 27.5574 130.338 23.262 130.338 18.0197ZM137.663 27.3361C142.076 27.3361 146.277 21.0852 146.277 13.4123C146.277 8.92822 144.928 4.85411 141.343 4.85411C136.931 4.85411 132.729 11.1049 132.729 18.7779C132.729 23.262 134.078 27.3361 137.663 27.3361Z" fill="#1C1B19"/>
<path d="M151.365 19.0935L154.063 7.03077C154.338 5.76827 153.542 5.35832 152.714 5.26399L152.161 5.20232L152.193 5.04269H158.996L158.965 5.20232L158.384 5.26399C157.496 5.35832 156.482 5.80092 156.207 7.03077L153.45 19.3474C152.316 24.4627 154.616 26.8934 157.834 26.8934C161.483 26.8934 163.504 24.3684 164.546 19.6304L167.335 6.99812C167.61 5.76827 166.814 5.35469 165.987 5.26036L165.434 5.19869L165.466 5.03906H170.399L170.368 5.19869L169.786 5.26036C168.899 5.35469 167.885 5.76464 167.61 6.99812L164.758 19.9134C163.775 24.3648 161.599 27.5537 157.035 27.5537C152.038 27.5537 150.291 23.8278 151.365 19.0898V19.0935Z" fill="#1C1B19"/>
<path d="M166.508 26.9883L167.09 26.9266C167.977 26.8323 168.991 26.3897 169.266 25.1598L173.312 7.03495C173.587 5.77245 172.791 5.3625 171.963 5.26818L171.41 5.2065L171.442 5.04688H178.369C181.496 5.04688 184.313 6.53068 184.313 9.94088C184.313 13.5724 181.25 15.8761 177.57 16.384L180.359 22.6058C181.616 25.4174 182.503 26.7416 183.514 26.9302L183.852 26.9919L183.82 27.1515H180.355C180.049 26.7416 179.038 24.5939 178.577 23.52L176.186 17.9948C175.696 16.8266 175.481 16.511 174.499 16.511H173.333L171.403 25.1635C171.129 26.3933 171.925 26.8359 172.752 26.9302L173.305 26.9919L173.273 27.1515H166.47L166.501 26.9919L166.508 26.9883ZM176.133 16.2534C179.904 16.2534 182.14 13.8227 182.14 9.93725C182.14 6.52705 180.362 5.2972 178.341 5.2972H175.858L173.407 16.2534H176.136H176.133Z" fill="#1C1B19"/>
<path d="M191.211 6.65375L187.105 25.1596C186.831 26.4221 187.626 26.832 188.454 26.9263L189.007 26.988L188.975 27.1476H184.042L184.073 26.988L184.654 26.9263C185.542 26.832 186.556 26.4221 186.831 25.1886L190.877 7.03105C191.151 5.76854 190.356 5.35859 189.528 5.26427L188.975 5.20259L189.007 5.04297H192.747L200.469 23.7048L204.178 7.00202C204.452 5.77217 203.656 5.35859 202.829 5.26427L202.276 5.20259L202.308 5.04297H207.241L207.21 5.20259L206.629 5.26427C205.741 5.35859 204.727 5.76854 204.452 7.00202L199.917 27.3363H199.765L191.215 6.65375H191.211Z" fill="#1C1B19"/>
<path d="M201.571 26.9875L202.061 26.9258C203.135 26.7988 203.931 26.2946 204.973 24.4298L215.978 4.75586H216.129L218.123 24.3319C218.306 26.1313 218.799 26.7626 219.869 26.9222L220.299 26.9839L220.267 27.1435H213.492L213.523 26.9839L214.104 26.9222C215.576 26.7662 216.249 26.3853 216.066 24.5242L215.576 19.5975H208.005L205.276 24.4589C204.389 26.0696 204.389 26.7009 206.442 26.9222L206.994 26.9839L206.963 27.1435H201.536L201.568 26.9839L201.571 26.9875ZM215.58 19.3472L214.478 8.01007L208.132 19.3472H215.58Z" fill="#1C1B19"/>
<path d="M220.574 26.9883L221.155 26.9266C222.042 26.8323 223.056 26.3897 223.331 25.1598L227.377 7.03495C227.652 5.77245 226.856 5.3625 226.029 5.26818L225.476 5.2065L225.507 5.04688H232.311L232.279 5.2065L231.698 5.26818C230.811 5.3625 229.797 5.8051 229.522 7.03495L225.444 25.2868C225.198 26.3933 225.905 26.8976 226.976 26.8976H228.448C232.065 26.8976 233.966 25.5408 236.142 20.6467H236.294L234.332 27.1515H220.539L220.57 26.9919L220.574 26.9883Z" fill="#1C1B19"/>
<path d="M29.8766 5.11203L28.711 10.231H28.5596C28.7744 6.5668 27.7003 5.36598 24.6401 5.36598H20.5622L18.2344 15.7562H20.6256C22.83 15.7562 23.8759 14.8674 24.8549 12.8176H25.0063L23.5625 19.2281H23.4111C23.4745 17.269 22.7667 16.0102 20.5622 16.0102H18.1992L16.0828 25.4173C15.8398 26.4621 16.5441 26.9664 17.5865 26.9664H19.6078C23.1963 26.9664 25.0345 26.0775 27.239 21.1545H27.3939L25.612 27.2167H0L0.0316937 27.0607L0.612745 26.9954C1.50017 26.9011 2.51437 26.4585 2.78905 25.2286L6.83176 7.10373C7.10643 5.8376 6.30705 5.43128 5.48301 5.33333L4.93013 5.26802L4.95831 5.11203H11.7654L11.7337 5.26802L11.1527 5.33333C10.2617 5.43128 9.25104 5.87388 8.97636 7.10373L4.89844 25.352C4.65545 26.4621 5.35976 26.9664 6.43382 26.9664H8.55378C8.91298 26.9664 9.27569 26.97 9.63137 26.9664C11.702 26.9591 13.6353 26.7705 14.1424 24.4341L18.0091 7.1001C18.2838 5.83397 17.4844 5.42765 16.6603 5.3297L16.1075 5.2644L16.1356 5.1084H29.8696L29.8766 5.11203Z" fill="#1C1B19"/>
</svg>
