<svg width="253" height="224" viewBox="0 0 253 224" fill="none" xmlns="http://www.w3.org/2000/svg">
<path d="M176.479 27.8106L182.026 0H201.44L178.269 27.8722L176.479 27.8106Z" fill="#1C1B19"/>
<path d="M253 36.5547L243.129 79.9627H241.847C243.666 48.891 234.571 38.7082 208.656 38.7082H174.124L154.412 126.816H174.661C193.329 126.816 202.185 119.279 210.475 101.897H211.758L199.531 156.257H198.249C198.786 139.645 192.792 128.97 174.124 128.97H154.114L136.192 208.741C134.134 217.601 140.098 221.877 148.925 221.877H166.042C196.43 221.877 211.996 214.34 230.664 172.593H231.976L216.887 224H0L0.268388 222.677L5.18883 222.123C12.7037 221.323 21.2921 217.57 23.6181 207.141L57.8524 53.4441C60.1785 42.7075 53.4091 39.2619 46.431 38.4313L41.7492 37.8775L41.9877 36.5547H99.6314L99.363 37.8775L94.4426 38.4313C86.8979 39.2619 78.3393 43.0151 76.0133 53.4441L41.4808 208.187C39.4231 217.601 45.3873 221.877 54.4827 221.877H72.4348C75.4765 221.877 78.5481 221.908 81.56 221.877C99.0947 221.815 115.466 220.216 119.76 200.404L152.504 53.4133C154.83 42.6767 148.06 39.2312 141.082 38.4005L136.401 37.8468L136.639 36.5239H252.94L253 36.5547Z" fill="#1C1B19"/>
</svg>
