<svg width="82" height="78" viewBox="0 0 82 78" fill="none" xmlns="http://www.w3.org/2000/svg">
<path d="M65.0894 8.66321L66.8956 0H73.1821L65.6731 8.67886L65.0894 8.66321Z" fill="white"/>
<path d="M82 19.5642L78.7976 33.0951H78.3796C78.9711 23.4067 76.0291 20.2372 67.6208 20.2372H56.4283L50.0314 47.6981H56.5939C62.6437 47.6981 65.5069 45.3504 68.2045 39.927H68.6226L64.663 56.87H64.2449C64.4184 51.6971 62.4781 48.3633 56.4283 48.3633H49.9446L44.1393 73.2338C43.4688 75.9963 45.4092 77.3346 48.2724 77.3346H53.8174C63.6612 77.3346 68.7093 74.9868 74.7591 61.9803H75.1851L70.2947 77.9998H0L0.0867646 77.585L1.68007 77.4128C4.10947 77.1624 6.8938 75.9964 7.65102 72.7408L18.7489 24.8388C19.5062 21.4972 17.3134 20.4172 15.0496 20.159L13.5352 19.9868L13.6141 19.572H32.292L32.2053 19.9868L30.612 20.159C28.1668 20.4172 25.3982 21.5833 24.641 24.8388L13.4484 73.0695C12.778 75.9964 14.7184 77.3346 17.6604 77.3346H23.4815C24.4675 77.3346 25.4613 77.3502 26.4394 77.3424C32.1264 77.3267 37.4269 76.8181 38.823 70.6513L49.4398 24.8388C50.197 21.4972 48.0042 20.4172 45.7405 20.159L44.2261 19.9868L44.3049 19.572H81.9921L82 19.5642Z" fill="white"/>
</svg>
