<svg width="226" height="396" viewBox="0 0 226 396" fill="none" xmlns="http://www.w3.org/2000/svg">
<path d="M113.014 396C82.2397 396 53.5431 374.924 32.1868 336.67C11.4399 299.444 0 250.204 0 198.013C0 145.823 11.4399 96.6091 32.1868 59.3565C53.5431 21.0764 82.2397 0 113.014 0C143.788 0 172.485 21.0764 193.813 59.3565C214.56 96.5828 226 145.823 226 198.013C226 250.204 214.56 299.444 193.813 336.67C172.485 374.924 143.788 396 113.014 396ZM113.014 1.1592C82.7106 1.1592 54.4018 22.0249 33.2671 59.8834C12.6033 96.978 1.21878 146.033 1.21878 198.013C1.21878 249.993 12.6033 299.048 33.2671 336.117C54.3741 373.975 82.6829 394.841 113.014 394.841C143.345 394.841 171.626 374.001 192.733 336.117C213.397 299.075 224.781 250.046 224.781 198.013C224.781 145.981 213.397 96.9516 192.733 59.8834C171.626 22.0249 143.289 1.1592 113.014 1.1592ZM113.014 386.726C90.5773 386.726 69.221 373.58 51.2163 348.736C50.5792 347.867 50.5238 346.734 51.0778 345.812C51.6318 344.89 52.7121 344.363 53.7924 344.442C56.8116 344.626 60.0248 344.468 63.0994 343.994C72.2956 342.571 80.3285 338.672 87.6688 332.033C91.4914 328.582 95.0646 324.445 98.3331 319.73C99.7181 317.701 102.488 316.937 104.759 317.964C106.034 318.518 107.308 319.071 108.554 319.598C116.892 322.996 125.368 325.315 134.481 326.659C143.151 327.923 151.101 328.108 159.521 327.264C168.884 326.369 177.941 324.287 185.06 321.442C186.279 320.942 187.581 321.205 188.467 322.074C189.326 322.944 189.548 324.182 188.994 325.262C187.775 327.66 186.528 330.057 185.254 332.349C165.671 367.441 140.049 386.753 113.042 386.753L113.014 386.726ZM53.5985 345.575C52.9891 345.575 52.4628 345.864 52.1581 346.365C51.8257 346.918 51.8534 347.551 52.2135 348.051C69.9689 372.579 90.9928 385.541 113.014 385.541C139.522 385.541 164.784 366.44 184.118 331.743C185.393 329.477 186.639 327.106 187.858 324.709C188.246 323.945 187.941 323.234 187.553 322.838C187.138 322.417 186.417 322.127 185.586 322.443C178.302 325.341 169.133 327.449 159.632 328.371C151.128 329.214 143.068 329.03 134.287 327.739C125.063 326.369 116.504 324.024 108.056 320.599C106.781 320.072 105.507 319.519 104.233 318.966C102.516 318.202 100.411 318.781 99.358 320.309C96.0618 325.104 92.4054 329.319 88.5275 332.823C80.9933 339.621 72.7665 343.625 63.2933 345.074C60.1079 345.575 56.8393 345.759 53.7093 345.548C53.6816 345.548 53.6262 345.548 53.5985 345.548V345.575ZM56.2853 336.406C52.3243 336.406 48.7788 335.669 45.898 334.167C41.8262 332.086 38.9455 328.476 37.8375 324.024C36.5356 318.887 37.6713 313.486 40.8567 309.587C44.5131 305.082 51.3548 301.867 58.2797 301.419C58.8614 301.393 59.4154 301.367 60.0248 301.367C66.0632 301.367 72.905 303.185 82.1843 307.268C83.9571 308.032 85.8684 308.902 88.0289 309.929C89.3585 310.561 90.328 311.721 90.7158 313.091C91.0759 314.461 90.7989 315.91 89.9679 317.042C87.4472 320.467 84.7327 323.523 81.8796 326.132C75.7027 331.691 69.3318 334.799 61.7975 335.985C59.914 336.275 58.0858 336.406 56.3407 336.406H56.2853ZM59.9971 302.526C59.4431 302.526 58.8891 302.552 58.3351 302.579C51.7426 303 45.2609 306.03 41.7985 310.298C38.8624 313.907 37.8098 318.939 39.0286 323.76C40.0534 327.897 42.7126 331.243 46.4797 333.166C50.3853 335.168 55.5928 335.748 61.5482 334.826C68.8332 333.693 75.0102 330.689 80.9933 325.289C83.7909 322.759 86.4501 319.756 88.943 316.384C89.5801 315.514 89.774 314.408 89.497 313.38C89.22 312.327 88.4721 311.457 87.4749 310.983C85.3144 309.955 83.4031 309.086 81.6581 308.322C72.5449 304.317 65.8694 302.526 59.9971 302.526ZM149.522 319.651C145.034 319.651 140.519 319.308 135.755 318.623C127.39 317.385 119.579 315.251 111.906 312.116C110.992 311.747 110.105 311.378 109.191 310.983C106.698 309.903 105.59 307.163 106.671 304.713C107.917 301.92 109.081 298.996 110.133 295.966C111.435 292.278 112.571 288.536 113.596 284.453C114.205 282.082 116.642 280.554 119.163 280.923C128.138 282.293 135.672 282.951 142.902 282.978H143.289C157.97 282.978 170.102 280.29 178.357 275.206C187.387 269.673 192.871 260.637 193.398 250.441C193.952 239.665 189.021 229.312 179.465 221.329C170.213 213.583 155.699 207.05 133.788 200.779C131.739 200.2 129.606 199.594 127.473 199.041C125.534 198.514 124.232 196.828 124.371 194.904C125.257 181.468 126.116 167.083 126.974 152.33C127.224 147.851 127.501 143.425 127.75 139.078C127.833 137.84 128.442 136.681 129.44 135.917C130.437 135.126 131.739 134.784 133.013 134.942C151.101 137.234 174.95 140.712 203.896 145.217C208.937 146.007 212.898 149.906 213.508 154.727C215.336 168.849 216.25 183.418 216.25 198.04C216.25 231.393 211.402 264.114 202.206 292.646C199.132 302.236 191.736 309.982 181.93 313.907L181.736 313.986C175.448 316.489 167.028 318.386 158.607 319.229C155.533 319.545 152.513 319.677 149.522 319.677V319.651ZM118.415 282.055C116.726 282.055 115.202 283.162 114.814 284.743C113.762 288.826 112.626 292.62 111.324 296.335C110.272 299.365 109.081 302.342 107.834 305.161C107.003 307.005 107.834 309.086 109.718 309.903C110.604 310.298 111.518 310.667 112.404 311.036C119.994 314.144 127.722 316.252 135.977 317.464C143.788 318.597 150.962 318.781 158.524 318.017C166.834 317.2 175.144 315.33 181.321 312.88L181.515 312.801C190.96 309.007 198.107 301.551 201.098 292.278C210.267 263.851 215.086 231.261 215.086 198.013C215.086 183.444 214.172 168.928 212.344 154.859C211.79 150.565 208.245 147.061 203.757 146.376C174.811 141.844 150.99 138.393 132.93 136.101C131.96 135.969 131.046 136.233 130.298 136.812C129.55 137.392 129.107 138.235 129.052 139.157C128.803 143.504 128.526 147.93 128.276 152.383C127.418 167.163 126.559 181.521 125.673 194.957C125.589 196.327 126.504 197.539 127.888 197.908C130.049 198.487 132.182 199.067 134.232 199.673C156.308 205.996 170.961 212.582 180.351 220.46C190.185 228.679 195.281 239.349 194.7 250.52C194.146 261.111 188.467 270.463 179.077 276.207C170.629 281.423 158.275 284.189 143.345 284.189H142.957C135.672 284.163 128.082 283.504 119.052 282.135C118.858 282.108 118.665 282.082 118.471 282.082L118.415 282.055ZM30.8849 306.899C30.8849 306.899 30.6356 306.899 30.4971 306.899C29.4168 306.768 28.5305 306.109 28.1427 305.108C23.3507 292.594 19.445 279.131 16.5089 265.063C16.1211 263.245 16.7582 261.401 18.1986 260.136C19.6389 258.871 21.6333 258.424 23.5169 258.924C26.8962 259.846 31.8821 261.19 36.314 262.27L45.3994 264.509C60.7726 268.303 79.8853 273.019 95.7294 276.497C97.6961 276.918 99.5796 277.313 101.408 277.708C102.737 277.972 103.845 278.736 104.538 279.816C105.23 280.896 105.452 282.161 105.12 283.399C104.178 286.982 103.153 290.275 102.045 293.437C101.214 295.861 100.272 298.232 99.2749 300.524C98.7486 301.762 97.6684 302.737 96.3665 303.211C95.0369 303.685 93.5688 303.606 92.3224 303C89.8294 301.815 87.6688 300.814 85.7022 299.944C78.528 296.809 69.2487 293.305 59.9417 293.305C59.1938 293.305 58.4459 293.305 57.698 293.384C48.2802 293.99 39.2502 298.311 34.0981 304.686C33.8211 305.029 33.5441 305.371 33.2948 305.74C32.7408 306.504 31.8267 306.952 30.8849 306.952V306.899ZM21.9934 259.846C20.9131 259.846 19.8882 260.215 19.0572 260.953C17.9216 261.927 17.423 263.376 17.7277 264.799C20.6638 278.815 24.5694 292.225 29.306 304.686C29.5276 305.266 30.0262 305.635 30.6633 305.714C31.3004 305.793 31.9098 305.529 32.2976 305.002C32.5746 304.634 32.8516 304.265 33.1286 303.896C38.4746 297.283 47.8647 292.778 57.6149 292.146C67.9191 291.461 78.3341 295.36 86.2285 298.811C88.2228 299.681 90.3834 300.682 92.904 301.894C93.8735 302.368 94.9538 302.394 95.9787 302.052C96.9759 301.683 97.7792 300.972 98.1946 300.023C99.1641 297.757 100.078 295.413 100.937 293.015C102.045 289.88 103.042 286.613 103.984 283.057C104.233 282.135 104.067 281.186 103.541 280.369C103.014 279.553 102.183 278.999 101.186 278.789C99.358 278.42 97.4468 277.998 95.4801 277.577C79.636 274.099 60.4957 269.383 45.1224 265.59L36.037 263.35C31.5774 262.27 26.5915 260.926 23.2122 260.004C22.7967 259.899 22.4089 259.846 21.9934 259.846ZM143.345 274.889H142.957C136.365 274.863 129.44 274.257 121.213 273.019C119.911 272.835 118.775 272.15 118 271.148C117.224 270.121 116.919 268.883 117.113 267.618C119.246 255.183 120.991 239.929 122.598 219.59L122.681 218.457C122.847 216.165 123.041 213.794 123.207 211.397C123.29 210.158 123.955 209.052 125.035 208.341C126.088 207.629 127.418 207.445 128.636 207.761C129.55 208.024 130.437 208.262 131.351 208.525C151.71 214.347 165.615 220.512 173.814 227.388C181.376 233.711 185.309 241.773 184.894 250.046C184.506 257.712 180.545 264.22 173.731 268.382C166.834 272.624 156.308 274.863 143.317 274.863L143.345 274.889ZM127.501 208.789C126.891 208.789 126.282 208.973 125.783 209.315C125.035 209.816 124.537 210.606 124.481 211.476C124.315 213.873 124.121 216.244 123.955 218.563L123.872 219.696C122.238 240.087 120.493 255.367 118.36 267.829C118.194 268.777 118.443 269.699 119.025 270.463C119.606 271.227 120.465 271.728 121.407 271.86C129.578 273.098 136.42 273.678 142.957 273.704H143.317C156.087 273.704 166.363 271.517 173.066 267.407C179.52 263.456 183.287 257.264 183.675 249.993C184.091 242.089 180.296 234.37 173.011 228.284C164.95 221.54 151.211 215.454 130.991 209.658C130.104 209.394 129.218 209.157 128.304 208.894C128.027 208.815 127.75 208.789 127.473 208.789H127.501ZM103.984 269.778C103.624 269.778 103.264 269.752 102.931 269.673C101.214 269.304 99.4688 268.935 97.6406 268.54C82.0735 265.142 63.0994 260.452 47.8647 256.685L38.4469 254.366C29.6107 252.206 24.2093 250.652 20.2483 249.519C16.038 248.307 12.9634 244.829 12.4094 240.64C10.6366 226.756 9.72252 212.424 9.72252 197.987C9.72252 171.378 12.7141 145.665 18.6417 121.585C21.0516 111.811 28.4474 103.96 38.4192 100.561L38.6408 100.482C47.9201 97.3732 60.0525 95.0284 70.3013 94.3698C78.9712 93.8165 87.2533 94.3961 96.0341 95.0021H96.4496C99.0256 95.2128 101.602 95.3972 104.205 95.529C108.554 95.7924 112.82 95.9769 116.864 96.0822C118.249 96.1086 119.496 96.6618 120.41 97.6366C121.324 98.5851 121.795 99.8496 121.684 101.141C121.296 106.304 120.881 112.443 120.354 120.478C120.271 121.716 119.689 122.823 118.692 123.613C117.695 124.404 116.504 124.746 115.174 124.641C88.6383 121.822 72.351 122.059 60.6895 125.431C46.5628 129.488 40.2473 137.893 37.4497 144.216C33.7103 152.646 34.3196 161.393 39.2225 169.534C44.7901 178.728 55.1497 186.026 70.883 191.822C81.4365 195.721 95.1754 199.172 108.443 202.492C109.607 202.782 110.687 203.045 111.767 203.335C113.734 203.836 115.064 205.574 114.925 207.524C114.648 211.449 114.343 215.27 114.066 218.932C112.488 238.717 110.798 253.629 108.748 265.8C108.527 267.091 107.806 268.198 106.671 268.909C105.84 269.436 104.898 269.726 103.928 269.726L103.984 269.778ZM77.5862 95.3709C75.2041 95.3709 72.7942 95.4236 70.3844 95.5817C60.2464 96.214 48.2525 98.5324 39.0563 101.615L38.8347 101.694C29.2229 104.961 22.1319 112.496 19.8328 121.875C13.9328 145.875 10.9413 171.483 10.9413 198.013C10.9413 212.398 11.8277 226.703 13.6281 240.509C14.099 244.223 16.8413 247.306 20.5807 248.412C24.514 249.545 29.9154 251.073 38.7239 253.233L48.1417 255.552C63.3764 259.319 82.3228 263.982 97.8623 267.407C99.6627 267.803 101.435 268.171 103.125 268.54C104.15 268.751 105.147 268.54 106.006 268.013C106.837 267.46 107.391 266.643 107.557 265.669C109.607 253.497 111.296 238.638 112.848 218.879C113.125 215.217 113.429 211.397 113.706 207.471C113.789 206.101 112.848 204.837 111.463 204.494C110.382 204.231 109.302 203.941 108.222 203.677C94.8153 200.305 81.0487 196.854 70.4398 192.928C54.4295 187.001 43.876 179.545 38.1422 170.113C33.0178 161.656 32.4084 152.541 36.314 143.768C39.1948 137.208 45.7318 128.514 60.3295 124.325C72.1571 120.926 88.5829 120.663 115.258 123.482C116.255 123.587 117.169 123.324 117.889 122.718C118.609 122.138 119.052 121.321 119.108 120.399C119.634 112.364 120.05 106.225 120.437 101.062C120.52 100.087 120.16 99.1383 119.468 98.427C118.775 97.7157 117.834 97.2941 116.781 97.2678C112.709 97.1624 108.443 96.978 104.067 96.7145C101.435 96.5828 98.8594 96.3984 96.3111 96.214H95.8679C89.6078 95.7661 83.5693 95.3446 77.5031 95.3446L77.5862 95.3709ZM111.878 194.878C111.518 194.878 111.158 194.825 110.798 194.746C97.6961 191.453 84.1787 188.055 74.013 184.313C60.3295 179.281 51.1332 172.959 46.6459 165.529C43.0727 159.628 42.6295 153.516 45.344 147.403C48.3633 140.554 54.3741 135.759 63.1825 133.229C73.4867 130.252 89.22 130.094 114.205 132.729L115.174 132.834C117.64 133.098 119.468 135.126 119.329 137.497L119.08 141.686C118.886 145.059 118.692 148.457 118.471 151.882L118.138 157.467C117.473 168.638 116.809 180.204 116.089 191.111C116.005 192.323 115.368 193.403 114.343 194.114C113.596 194.615 112.737 194.878 111.85 194.878H111.878ZM84.6773 132.018C75.7581 132.018 68.9163 132.782 63.5703 134.336C55.122 136.786 49.3882 141.318 46.5074 147.851C43.9591 153.621 44.3746 159.364 47.7539 164.95C52.1027 172.142 61.105 178.28 74.5116 183.233C84.5942 186.948 98.0838 190.347 111.13 193.613C112.044 193.851 112.986 193.666 113.706 193.166C114.454 192.665 114.897 191.875 114.953 191.032C115.673 180.125 116.338 168.559 117.003 157.388L117.335 151.803C117.557 148.352 117.75 144.953 117.944 141.607L118.194 137.418C118.304 135.68 116.947 134.178 115.147 133.993L114.177 133.888C102.433 132.65 92.7655 132.018 84.7604 132.018H84.6773ZM201.375 136.496C200.96 136.496 200.572 136.47 200.156 136.391C173.205 132.202 150.547 128.961 132.874 126.722C130.465 126.406 128.692 124.377 128.83 122.059C129.384 113.418 129.855 106.278 130.326 100.245C130.52 97.9001 132.514 96.0032 135.007 95.8715C136.974 95.7661 138.968 95.608 140.907 95.4236C154.702 94.1327 164.535 91.0502 171.875 85.7811C176.529 82.4089 180.24 78.0619 182.623 73.2406C183.315 71.818 184.783 70.9486 186.445 70.9486C188.107 70.9486 189.575 71.8443 190.268 73.2933C198.19 89.5222 204.45 107.859 208.854 127.723C209.38 130.068 208.66 132.518 206.915 134.257C205.475 135.706 203.48 136.496 201.403 136.496H201.375ZM186.39 72.1341C185.199 72.1341 184.202 72.7401 183.703 73.7675C181.238 78.7732 177.387 83.2519 172.568 86.7296C165.061 92.1304 155.034 95.2655 140.99 96.5828C139.024 96.7672 137.029 96.9253 135.063 97.0307C133.179 97.1361 131.683 98.5587 131.545 100.324C131.074 106.357 130.603 113.47 130.049 122.112C129.938 123.824 131.24 125.326 133.013 125.563C150.713 127.802 173.371 131.069 200.35 135.232C202.455 135.574 204.505 134.916 206.001 133.44C207.497 131.965 208.078 129.963 207.635 127.96C203.231 108.175 196.999 89.9437 189.132 73.7675C188.633 72.7401 187.609 72.1078 186.417 72.1078L186.39 72.1341ZM34.0981 93.1842C32.8516 93.1842 31.6605 92.71 30.7464 91.8406C29.4445 90.5497 29.0291 88.7318 29.6938 87.0457C33.0178 78.8259 36.7572 70.9749 40.8013 63.7035C60.3849 28.6113 86.0346 9.27363 113.014 9.27363C129.661 9.27363 146.226 16.8348 160.906 31.1141C161.876 32.0625 162.153 33.4062 161.626 34.6181C161.072 35.8563 159.854 36.6203 158.441 36.6467C155.726 36.6467 152.901 37.0418 150.048 37.8059C142.514 39.7554 136.254 43.8917 131.905 49.7404C127.861 55.1676 125.396 61.9121 123.18 83.7525C122.93 86.2027 120.742 88.0732 118.194 88.0732H118.083C114.011 87.9941 109.635 87.8097 104.732 87.5199C102.931 87.4146 101.158 87.2828 99.3857 87.1774L97.0867 87.0194C87.835 86.3871 79.1374 85.7811 69.7473 86.3607C58.6121 87.0721 45.9257 89.5222 35.8154 92.9208C35.2337 93.1052 34.652 93.2106 34.0981 93.2106V93.1842ZM113.014 10.4328C86.5055 10.4328 61.2435 29.5334 41.8816 64.2568C37.8375 71.4755 34.1258 79.3001 30.8295 87.4672C30.3309 88.7055 30.6356 90.0754 31.6051 91.0239C32.5746 91.9723 33.9873 92.2621 35.2891 91.8142C45.621 88.3366 58.4182 85.8602 69.6642 85.1488C79.1374 84.5692 87.8627 85.1752 97.1144 85.8075L99.4688 85.9655C101.242 86.0973 103.014 86.2026 104.815 86.308C109.69 86.5978 114.066 86.7823 118.138 86.8613H118.221C120.188 86.8613 121.795 85.465 121.988 83.5944C124.232 61.4905 126.781 54.6143 130.935 49.0291C135.45 42.9433 141.96 38.6489 149.771 36.6203C152.735 35.8563 155.643 35.4348 158.469 35.4348C159.577 35.4348 160.241 34.7498 160.518 34.1438C160.851 33.3535 160.685 32.5104 160.075 31.9045C145.616 17.8623 129.357 10.4328 113.042 10.4328H113.014ZM136.835 87.6253C135.506 87.6253 134.232 87.1247 133.29 86.2027C132.237 85.1752 131.711 83.7789 131.877 82.3562C133.816 64.1514 135.894 58.3291 138.83 54.4036C142.098 50.0039 146.613 47.0532 152.292 45.5778C158.026 44.0761 163.482 44.5767 167.748 47.1058C172.18 49.7404 176.695 55.2466 176.833 61.5959C176.972 67.8135 172.956 74.7687 166.612 79.3528C160.629 83.6735 152.153 86.229 139.965 87.3882C139.051 87.4672 138.137 87.5463 137.195 87.6253C137.057 87.6253 136.919 87.6253 136.78 87.6253H136.835ZM158.635 45.894C156.724 45.894 154.646 46.1838 152.624 46.7107C147.223 48.107 142.929 50.926 139.827 55.0886C137.002 58.856 135.007 64.5466 133.096 82.4879C132.985 83.5681 133.373 84.6219 134.176 85.3859C134.952 86.15 136.032 86.5188 137.14 86.4398C138.054 86.3607 138.968 86.2817 139.882 86.2027C151.849 85.0698 160.103 82.5933 165.92 78.4044C171.958 74.0574 175.781 67.4446 175.642 61.6222C175.504 55.6945 171.294 50.5571 167.139 48.107C164.673 46.658 161.82 45.9203 158.663 45.9203L158.635 45.894Z" fill="white"/>
</svg>
